<svg width="411" height="249" viewBox="0 0 411 249" version="1.1" xmlns="http://www.w3.org/2000/svg" xmlns:xlink="http://www.w3.org/1999/xlink">
<g id="Canvas" fill="none">
<g id="Logo">
<g id="1">
<g id="Group">
<path id="Vector" d="M 1.80475 1.1C 1.99275 1.1 2.16975 1.173 2.30275 1.306C 2.49275 1.496 2.55675 1.773 2.46975 2.03L 2.35875 2.359L 2.02975 2.47C 1.95575 2.495 1.87975 2.507 1.80075 2.507C 1.61275 2.507 1.43675 2.434 1.30475 2.302C 1.02975 2.027 1.02975 1.58 1.30475 1.305C 1.43975 1.174 1.61675 1.1 1.80475 1.1ZM 38.2458 34.289L 38.5568 34.443C 38.7998 34.564 38.9508 34.805 38.9508 35.074C 38.9508 35.463 38.6348 35.779 38.2458 35.779C 37.8568 35.779 37.5408 35.463 37.5408 35.074C 37.5408 34.806 37.6918 34.564 37.9348 34.443L 38.2458 34.289ZM 1.80475 1.83105e-07C 1.34275 1.83105e-07 0.88075 0.176 0.52875 0.529C -0.17625 1.234 -0.17625 2.377 0.52875 3.081C 0.88075 3.433 1.34075 3.608 1.80175 3.608C 1.99775 3.608 2.19375 3.576 2.38075 3.513L 14.0467 15.179L 31.1467 15.179L 37.4448 21.477L 37.4448 33.458C 36.8498 33.753 36.4398 34.365 36.4398 35.074C 36.4398 36.071 37.2478 36.879 38.2448 36.879C 39.2418 36.879 40.0498 36.071 40.0498 35.074C 40.0498 34.365 39.6398 33.753 39.0448 33.458L 39.0448 20.814L 31.8098 13.579L 14.7097 13.579L 3.51275 2.382C 3.72475 1.753 3.58175 1.03 3.08075 0.529C 2.72875 0.177 2.26675 1.83105e-07 1.80475 1.83105e-07Z" transform="translate(99.6788 67.9501) scale(3)" fill="#D3C9FF"/>
<path id="Vector_2" d="M 1.805 1.1C 2.194 1.1 2.51 1.416 2.51 1.805C 2.51 2.073 2.359 2.315 2.116 2.435L 1.805 2.589L 1.494 2.435C 1.251 2.314 1.1 2.073 1.1 1.805C 1.1 1.416 1.417 1.1 1.805 1.1ZM 27.205 55.21L 27.516 55.364C 27.759 55.485 27.91 55.726 27.91 55.994C 27.91 56.383 27.594 56.699 27.205 56.699C 26.816 56.699 26.5 56.383 26.5 55.994C 26.5 55.726 26.651 55.484 26.894 55.364L 27.205 55.21ZM 1.805 8.39233e-08C 0.808001 8.39233e-08 1.83105e-07 0.807999 1.83105e-07 1.805C 1.83105e-07 2.514 0.410001 3.126 1.005 3.421L 1.005 18.341L 7.082 24.201L 17.674 24.201L 26.405 32.932L 26.405 54.38C 25.81 54.675 25.4 55.287 25.4 55.996C 25.4 56.993 26.208 57.801 27.205 57.801C 28.202 57.801 29.01 56.993 29.01 55.996C 29.01 55.287 28.6 54.675 28.005 54.38L 28.005 32.269L 18.336 22.6L 7.728 22.6L 2.605 17.66L 2.605 3.42C 3.2 3.125 3.61 2.513 3.61 1.804C 3.61 0.808 2.802 8.39233e-08 1.805 8.39233e-08Z" transform="translate(148.2 21.9869) scale(3)" fill="#D3C9FF"/>
<path id="Vector_3" d="M 16.996 1.1C 17.184 1.1 17.361 1.173 17.494 1.306C 17.627 1.439 17.7 1.616 17.7 1.804C 17.7 1.992 17.627 2.169 17.494 2.302C 17.362 2.434 17.186 2.507 16.998 2.507C 16.92 2.507 16.843 2.494 16.769 2.47L 16.44 2.359L 16.329 2.03C 16.243 1.773 16.307 1.496 16.496 1.306C 16.631 1.174 16.808 1.1 16.996 1.1ZM 1.805 44.739L 2.116 44.893C 2.359 45.014 2.51 45.255 2.51 45.523C 2.51 45.912 2.194 46.228 1.805 46.228C 1.416 46.228 1.1 45.912 1.1 45.523C 1.1 45.255 1.251 45.013 1.494 44.892L 1.805 44.739ZM 16.996 5.64575e-07C 16.534 5.64575e-07 16.072 0.176 15.72 0.529C 15.219 1.03 15.076 1.753 15.288 2.382L 6.772 10.898L 6.772 21.698L 1.005 27.465L 1.005 43.909C 0.410002 44.204 1.12915e-06 44.816 1.12915e-06 45.525C 1.12915e-06 46.522 0.807998 47.33 1.805 47.33C 2.802 47.33 3.61 46.522 3.61 45.525C 3.61 44.816 3.2 44.204 2.605 43.909L 2.605 28.127L 8.372 22.36L 8.372 11.56L 16.419 3.513C 16.607 3.576 16.803 3.608 16.998 3.608C 17.459 3.608 17.92 3.433 18.271 3.081C 18.976 2.376 18.976 1.233 18.271 0.529C 17.92 0.177 17.458 5.64575e-07 16.996 5.64575e-07Z" transform="translate(239.799 69) scale(3)" fill="#D3C9FF"/>
<path id="Vector_4" d="M 1.80475 1.1C 1.99275 1.1 2.16975 1.173 2.30275 1.306C 2.49275 1.496 2.55675 1.773 2.46975 2.03L 2.35875 2.359L 2.03075 2.47C 1.95675 2.495 1.88075 2.507 1.80275 2.507C 1.61475 2.507 1.43875 2.434 1.30675 2.302C 1.17375 2.169 1.10075 1.992 1.10075 1.804C 1.10075 1.616 1.17375 1.439 1.30675 1.306C 1.43975 1.173 1.61675 1.1 1.80475 1.1ZM 11.8557 15.383C 12.0437 15.383 12.2198 15.456 12.3518 15.588C 12.4848 15.721 12.5577 15.898 12.5577 16.086C 12.5577 16.274 12.4848 16.451 12.3518 16.584C 12.2188 16.717 12.0417 16.79 11.8537 16.79C 11.6657 16.79 11.4887 16.717 11.3557 16.584C 11.1657 16.394 11.1017 16.117 11.1887 15.86L 11.2997 15.531L 11.6288 15.42C 11.7008 15.395 11.7777 15.383 11.8557 15.383ZM 1.80475 3.8147e-07C 1.34275 3.8147e-07 0.880751 0.176 0.528751 0.529C -0.176249 1.234 -0.176249 2.377 0.528751 3.081C 0.880751 3.433 1.34075 3.608 1.80175 3.608C 1.99775 3.608 2.19375 3.576 2.38075 3.513L 5.12775 6.26L 5.12775 10.493L 10.1438 15.509C 9.93175 16.138 10.0747 16.861 10.5757 17.362C 10.9277 17.714 11.3898 17.891 11.8518 17.891C 12.3138 17.891 12.7758 17.715 13.1278 17.362C 13.8328 16.657 13.8328 15.514 13.1278 14.81C 12.7758 14.458 12.3157 14.283 11.8547 14.283C 11.6587 14.283 11.4628 14.315 11.2758 14.378L 6.72875 9.831L 6.72875 5.598L 3.51275 2.382C 3.72475 1.753 3.58175 1.03 3.08075 0.529C 2.72875 0.176 2.26675 3.8147e-07 1.80475 3.8147e-07Z" transform="translate(114.829 45.501) scale(3)" fill="#D3C9FF"/>
<path id="Vector_5" d="M 1.805 1.1C 2.194 1.1 2.51 1.416 2.51 1.805C 2.51 2.073 2.359 2.315 2.116 2.435L 1.805 2.589L 1.494 2.435C 1.251 2.315 1.1 2.073 1.1 1.805C 1.1 1.416 1.417 1.1 1.805 1.1ZM 7.732 14.221C 7.92 14.221 8.096 14.294 8.228 14.426C 8.361 14.559 8.434 14.736 8.434 14.924C 8.434 15.112 8.361 15.289 8.228 15.422C 8.095 15.555 7.918 15.628 7.73 15.628C 7.542 15.628 7.365 15.555 7.232 15.422C 7.042 15.232 6.978 14.955 7.065 14.698L 7.176 14.369L 7.505 14.258C 7.577 14.233 7.654 14.221 7.732 14.221ZM 1.805 -4.88281e-07C 0.808 -4.88281e-07 -3.89099e-07 0.808 -3.89099e-07 1.805C -3.89099e-07 2.514 0.41 3.126 1.005 3.421L 1.005 9.332L 6.021 14.348C 5.809 14.977 5.952 15.7 6.453 16.201C 6.805 16.553 7.267 16.73 7.729 16.73C 8.191 16.73 8.653 16.554 9.005 16.201C 9.71 15.496 9.71 14.353 9.005 13.649C 8.653 13.297 8.193 13.122 7.732 13.122C 7.536 13.122 7.34 13.154 7.153 13.217L 2.606 8.67L 2.606 3.422C 3.201 3.127 3.611 2.515 3.611 1.806C 3.61 0.807999 2.802 -4.88281e-07 1.805 -4.88281e-07Z" transform="translate(84 113.787) scale(3)" fill="#D3C9FF"/>
<path id="Vector_6" d="M 5.405 1.1C 5.794 1.1 6.11 1.416 6.11 1.805C 6.11 2.073 5.959 2.315 5.716 2.435L 5.405 2.589L 5.094 2.435C 4.851 2.315 4.7 2.073 4.7 1.805C 4.7 1.416 5.017 1.1 5.405 1.1ZM 1.805 29.81L 2.116 29.964C 2.359 30.084 2.51 30.326 2.51 30.594C 2.51 30.983 2.194 31.299 1.805 31.299C 1.416 31.299 1.1 30.983 1.1 30.594C 1.1 30.326 1.251 30.084 1.494 29.964L 1.805 29.81ZM 5.405 -4.88281e-07C 4.408 -4.88281e-07 3.6 0.808 3.6 1.805C 3.6 2.514 4.01 3.126 4.605 3.421L 4.605 10.469L 1.005 14.069L 1.005 28.98C 0.41 29.275 3.23486e-06 29.887 3.23486e-06 30.596C 3.23486e-06 31.593 0.808004 32.401 1.805 32.401C 2.802 32.401 3.61 31.593 3.61 30.596C 3.61 29.887 3.2 29.275 2.605 28.98L 2.605 14.731L 6.205 11.131L 6.205 3.42C 6.8 3.125 7.21 2.513 7.21 1.804C 7.21 0.808 6.402 -4.88281e-07 5.405 -4.88281e-07Z" transform="translate(240.6 32.7869) scale(3)" fill="#D3C9FF"/>
<path id="Vector_7" d="M 5.92775 1.1C 6.31675 1.1 6.63275 1.416 6.63275 1.805C 6.63275 2.073 6.48175 2.315 6.23875 2.435L 5.92775 2.589L 5.61675 2.435C 5.37375 2.314 5.22275 2.073 5.22275 1.805C 5.22275 1.416 5.53975 1.1 5.92775 1.1ZM 1.80175 8.821C 1.87975 8.821 1.95675 8.834 2.03075 8.858L 2.35975 8.969L 2.47075 9.298C 2.55675 9.555 2.49275 9.832 2.30375 10.022C 2.17075 10.155 1.99375 10.228 1.80575 10.228C 1.61775 10.228 1.44075 10.155 1.30775 10.022C 1.03275 9.747 1.03275 9.3 1.30775 9.025C 1.43775 8.893 1.61375 8.821 1.80175 8.821ZM 5.92775 -8.69751e-07C 4.93075 -8.69751e-07 4.12275 0.807999 4.12275 1.805C 4.12275 2.514 4.53275 3.126 5.12775 3.421L 5.12775 5.069L 2.38075 7.816C 2.19275 7.753 1.99675 7.721 1.80175 7.721C 1.34075 7.721 0.879747 7.896 0.528747 8.248C -0.176253 8.953 -0.176253 10.096 0.528747 10.8C 0.880747 11.152 1.34275 11.329 1.80475 11.329C 2.26675 11.329 2.72875 11.153 3.08075 10.8C 3.58175 10.299 3.72475 9.576 3.51275 8.947L 6.72875 5.731L 6.72875 3.42C 7.32375 3.125 7.73375 2.513 7.73375 1.804C 7.73275 0.808 6.92475 -8.69751e-07 5.92775 -8.69751e-07Z" transform="translate(260.632 48.9869) scale(3)" fill="#D3C9FF"/>
<path id="Vector_8" d="M 19.8 1.1C 20.189 1.1 20.505 1.416 20.505 1.805C 20.505 2.073 20.354 2.315 20.111 2.435L 19.8 2.589L 19.489 2.435C 19.246 2.314 19.095 2.073 19.095 1.805C 19.095 1.416 19.412 1.1 19.8 1.1ZM 1.805 15.495C 2.073 15.495 2.315 15.646 2.435 15.889L 2.589 16.2L 2.435 16.511C 2.314 16.754 2.073 16.905 1.805 16.905C 1.416 16.905 1.1 16.589 1.1 16.2C 1.1 15.811 1.416 15.495 1.805 15.495ZM 19.8 8.39233e-08C 18.803 8.39233e-08 17.995 0.807999 17.995 1.805C 17.995 2.514 18.405 3.126 19 3.421L 19 6.869L 10.469 15.4L 3.421 15.4C 3.126 14.805 2.514 14.395 1.805 14.395C 0.807999 14.395 -1.80054e-06 15.203 -1.80054e-06 16.2C -1.80054e-06 17.197 0.807999 18.005 1.805 18.005C 2.514 18.005 3.126 17.595 3.421 17L 11.132 17L 20.601 7.531L 20.601 3.42C 21.196 3.125 21.606 2.513 21.606 1.804C 21.605 0.808 20.797 8.39233e-08 19.8 8.39233e-08Z" transform="translate(175.815 21.9869) scale(3)" fill="#D3C9FF"/>
<path id="Vector_9" d="M 8.477 1.1C 8.665 1.1 8.842 1.173 8.975 1.306C 9.165 1.496 9.229 1.773 9.142 2.03L 9.031 2.359L 8.702 2.47C 8.628 2.495 8.552 2.507 8.473 2.507C 8.285 2.507 8.109 2.434 7.977 2.302C 7.844 2.169 7.771 1.992 7.771 1.804C 7.771 1.616 7.844 1.439 7.977 1.306C 8.11 1.173 8.289 1.1 8.477 1.1ZM 1.806 12.424C 2.074 12.424 2.316 12.575 2.436 12.818L 2.59 13.129L 2.436 13.44C 2.315 13.683 2.074 13.834 1.806 13.834C 1.417 13.834 1.101 13.518 1.101 13.129C 1.101 12.74 1.417 12.424 1.806 12.424ZM 8.477 -3.89099e-07C 8.015 -3.89099e-07 7.553 0.176 7.201 0.529C 6.496 1.234 6.496 2.377 7.201 3.081C 7.553 3.433 8.013 3.608 8.474 3.608C 8.67 3.608 8.866 3.576 9.053 3.513L 13.269 7.729L 8.669 12.329L 3.421 12.329C 3.126 11.734 2.514 11.324 1.805 11.324C 0.807999 11.324 -1.25122e-06 12.132 -1.25122e-06 13.129C -1.25122e-06 14.126 0.807999 14.934 1.805 14.934C 2.514 14.934 3.126 14.524 3.421 13.929L 9.332 13.929L 15.532 7.729L 10.185 2.382C 10.397 1.753 10.254 1.03 9.753 0.529C 9.401 0.177 8.939 -3.89099e-07 8.477 -3.89099e-07Z" transform="translate(175.812 15) scale(3)" fill="#D3C9FF"/>
<path id="Vector_10" d="M 1.80475 1.1C 1.99275 1.1 2.16975 1.173 2.30275 1.306C 2.49275 1.496 2.55675 1.773 2.46975 2.03L 2.35875 2.359L 2.02975 2.47C 1.95575 2.495 1.87975 2.507 1.80075 2.507C 1.61275 2.507 1.43675 2.434 1.30475 2.302C 1.02975 2.027 1.02975 1.58 1.30475 1.305C 1.43975 1.174 1.61675 1.1 1.80475 1.1ZM 6.45575 5.75C 6.64375 5.75 6.81975 5.823 6.95175 5.955C 7.22675 6.23 7.22675 6.677 6.95175 6.952C 6.81875 7.085 6.64175 7.158 6.45375 7.158C 6.26575 7.158 6.08875 7.085 5.95575 6.952C 5.76575 6.762 5.70175 6.485 5.78875 6.228L 5.89975 5.899L 6.22875 5.788C 6.30075 5.762 6.37775 5.75 6.45575 5.75ZM 1.80475 -3.89099e-07C 1.34275 -3.89099e-07 0.880749 0.176 0.528749 0.529C -0.176251 1.234 -0.176251 2.377 0.528749 3.081C 0.880749 3.433 1.34075 3.608 1.80175 3.608C 1.99775 3.608 2.19375 3.576 2.38075 3.513L 4.74375 5.876C 4.53175 6.505 4.67475 7.228 5.17575 7.729C 5.52775 8.081 5.98975 8.258 6.45175 8.258C 6.91375 8.258 7.37575 8.082 7.72775 7.729C 8.43275 7.024 8.43275 5.881 7.72775 5.177C 7.37575 4.825 6.91575 4.65 6.45475 4.65C 6.25875 4.65 6.06275 4.682 5.87575 4.745L 3.51275 2.382C 3.72475 1.753 3.58175 1.03 3.08075 0.529C 2.72875 0.177 2.26675 -3.89099e-07 1.80475 -3.89099e-07Z" transform="translate(168.829 15) scale(3)" fill="#D3C9FF"/>
<path id="Vector_11" d="M 3.124 1.1C 3.312 1.1 3.489 1.173 3.622 1.306C 3.897 1.581 3.897 2.028 3.622 2.303C 3.49 2.435 3.314 2.508 3.126 2.508C 3.048 2.508 2.971 2.495 2.897 2.471L 2.568 2.36L 2.457 2.031C 2.371 1.774 2.435 1.497 2.624 1.307C 2.759 1.174 2.936 1.1 3.124 1.1ZM 3.127 9.35C 3.315 9.35 3.491 9.423 3.623 9.555C 3.898 9.83 3.898 10.277 3.623 10.552C 3.49 10.685 3.313 10.758 3.125 10.758C 2.937 10.758 2.76 10.685 2.627 10.552C 2.437 10.362 2.373 10.085 2.46 9.828L 2.571 9.499L 2.9 9.388C 2.972 9.362 3.049 9.35 3.127 9.35ZM 3.124 -5.79834e-07C 2.662 -5.79834e-07 2.2 0.176001 1.848 0.529001C 1.347 1.03 1.204 1.753 1.416 2.382L -2.74658e-07 3.798L -2.74658e-07 8.061L 1.416 9.477C 1.204 10.106 1.347 10.829 1.848 11.33C 2.2 11.682 2.662 11.859 3.124 11.859C 3.586 11.859 4.048 11.683 4.4 11.33C 5.105 10.625 5.105 9.482 4.4 8.778C 4.048 8.426 3.587 8.251 3.127 8.251C 2.931 8.251 2.735 8.283 2.548 8.346L 1.601 7.399L 1.601 4.462L 2.548 3.515C 2.736 3.578 2.932 3.61 3.127 3.61C 3.588 3.61 4.049 3.435 4.4 3.083C 5.105 2.378 5.105 1.235 4.4 0.531C 4.048 0.177 3.586 -5.79834e-07 3.124 -5.79834e-07Z" transform="translate(222.015 63.5999) scale(3)" fill="#D3C9FF"/>
<path id="Vector_12" d="M 1.80475 1.1C 1.99275 1.1 2.16975 1.173 2.30275 1.306C 2.49275 1.496 2.55675 1.773 2.46975 2.03L 2.35875 2.359L 2.02975 2.47C 1.95575 2.495 1.87975 2.507 1.80075 2.507C 1.61275 2.507 1.43675 2.434 1.30475 2.302C 1.17175 2.169 1.09875 1.992 1.09875 1.804C 1.09875 1.616 1.17175 1.439 1.30475 1.306C 1.43775 1.173 1.61675 1.1 1.80475 1.1ZM 29.3237 12.424C 29.7127 12.424 30.0287 12.74 30.0287 13.129C 30.0287 13.518 29.7127 13.834 29.3237 13.834C 29.0557 13.834 28.8137 13.683 28.6937 13.44L 28.5397 13.129L 28.6937 12.818C 28.8137 12.575 29.0557 12.424 29.3237 12.424ZM 1.80475 -5.79834e-07C 1.34275 -5.79834e-07 0.88075 0.175999 0.52875 0.528999C -0.17625 1.234 -0.17625 2.377 0.52875 3.081C 0.88075 3.433 1.34075 3.608 1.80175 3.608C 1.99775 3.608 2.19375 3.576 2.38075 3.513L 12.7968 13.929L 27.7077 13.929C 28.0027 14.524 28.6147 14.934 29.3237 14.934C 30.3207 14.934 31.1287 14.126 31.1287 13.129C 31.1287 12.132 30.3207 11.324 29.3237 11.324C 28.6147 11.324 28.0027 11.734 27.7077 12.329L 13.4598 12.329L 3.51275 2.382C 3.72475 1.753 3.58175 1.03 3.08075 0.528999C 2.72875 0.176999 2.26675 -5.79834e-07 1.80475 -5.79834e-07Z" transform="translate(93.2288 90.5999) scale(3)" fill="#D3C9FF"/>
<path id="Vector_13" d="M 9.095 1.1C 9.283 1.1 9.46 1.173 9.593 1.306C 9.868 1.581 9.868 2.028 9.593 2.303C 9.461 2.435 9.285 2.508 9.097 2.508C 9.019 2.508 8.942 2.495 8.868 2.471L 8.539 2.36L 8.428 2.031C 8.342 1.774 8.406 1.497 8.595 1.307C 8.73 1.174 8.907 1.1 9.095 1.1ZM 1.804 12.339L 2.115 12.493C 2.358 12.614 2.509 12.855 2.509 13.124C 2.509 13.513 2.193 13.829 1.804 13.829C 1.415 13.829 1.099 13.513 1.099 13.124C 1.099 12.856 1.25 12.614 1.493 12.493L 1.804 12.339ZM 9.095 -5.79834e-07C 8.633 -5.79834e-07 8.171 0.175999 7.819 0.528999C 7.318 1.03 7.175 1.753 7.387 2.382L 1.005 8.764L 1.005 11.508C 0.410002 11.803 -3.23486e-06 12.415 -3.23486e-06 13.124C -3.23486e-06 14.121 0.807997 14.929 1.805 14.929C 2.802 14.929 3.61 14.121 3.61 13.124C 3.61 12.415 3.2 11.803 2.605 11.508L 2.605 9.427L 8.519 3.513C 8.707 3.576 8.903 3.608 9.098 3.608C 9.559 3.608 10.02 3.433 10.371 3.081C 11.076 2.376 11.076 1.233 10.371 0.528999C 10.019 0.176999 9.557 -5.79834e-07 9.095 -5.79834e-07Z" transform="translate(274.302 90.5999) scale(3)" fill="#D3C9FF"/>
<path id="Vector_14" d="M 9.131 1.1C 9.52 1.1 9.836 1.416 9.836 1.805C 9.836 2.073 9.685 2.315 9.442 2.435L 9.131 2.589L 8.82 2.435C 8.577 2.314 8.426 2.073 8.426 1.805C 8.426 1.416 8.743 1.1 9.131 1.1ZM 9.126 31.695C 9.515 31.695 9.831 32.011 9.831 32.4C 9.831 32.789 9.515 33.105 9.126 33.105C 8.858 33.105 8.616 32.954 8.496 32.711L 8.342 32.4L 8.496 32.089C 8.616 31.846 8.858 31.695 9.126 31.695ZM 9.131 -4.88281e-07C 8.134 -4.88281e-07 7.326 0.808 7.326 1.805C 7.326 2.514 7.736 3.126 8.331 3.421L 8.331 24.869L -1.5564e-06 33.2L 7.511 33.2C 7.806 33.795 8.418 34.205 9.127 34.205C 10.124 34.205 10.932 33.397 10.932 32.4C 10.932 31.403 10.124 30.595 9.127 30.595C 8.418 30.595 7.806 31.005 7.511 31.6L 3.863 31.6L 9.932 25.531L 9.932 3.42C 10.527 3.125 10.937 2.513 10.937 1.804C 10.936 0.808 10.128 -4.88281e-07 9.131 -4.88281e-07Z" transform="translate(170.022 140.787) scale(3)" fill="#D3C9FF"/>
<path id="Vector_15" d="M 16.662 1.1C 16.85 1.1 17.027 1.173 17.16 1.306C 17.435 1.581 17.435 2.028 17.16 2.303C 17.028 2.435 16.852 2.508 16.664 2.508C 16.586 2.508 16.509 2.495 16.435 2.471L 16.106 2.36L 15.995 2.031C 15.909 1.774 15.973 1.497 16.162 1.307C 16.297 1.174 16.474 1.1 16.662 1.1ZM 1.805 33.939L 2.116 34.093C 2.359 34.214 2.51 34.455 2.51 34.724C 2.51 35.113 2.194 35.429 1.805 35.429C 1.416 35.429 1.1 35.113 1.1 34.724C 1.1 34.456 1.251 34.214 1.494 34.093L 1.805 33.939ZM 16.662 1.83105e-07C 16.2 1.83105e-07 15.738 0.176 15.386 0.529C 14.885 1.03 14.742 1.753 14.954 2.382L 13.538 3.798L 13.538 10.529L 6.807 10.529L 1.005 16.331L 1.005 33.109C 0.410003 33.404 -1.52588e-06 34.016 -1.52588e-06 34.725C -1.52588e-06 35.722 0.807999 36.53 1.805 36.53C 2.802 36.53 3.61 35.722 3.61 34.725C 3.61 34.016 3.2 33.404 2.605 33.109L 2.605 16.994L 7.47 12.129L 15.139 12.129L 15.139 4.46L 16.086 3.513C 16.274 3.576 16.47 3.608 16.665 3.608C 17.126 3.608 17.587 3.433 17.938 3.081C 18.643 2.376 18.643 1.233 17.938 0.529C 17.586 0.177 17.124 1.83105e-07 16.662 1.83105e-07Z" transform="translate(257.001 112.2) scale(3)" fill="#D3C9FF"/>
<path id="Vector_16" d="M 8.196 1.1C 8.585 1.1 8.901 1.416 8.901 1.805C 8.901 2.194 8.585 2.51 8.196 2.51C 7.928 2.51 7.686 2.359 7.566 2.116L 7.412 1.805L 7.566 1.494C 7.686 1.251 7.928 1.1 8.196 1.1ZM 3.128 12.626C 3.316 12.626 3.492 12.699 3.624 12.831C 3.899 13.106 3.899 13.553 3.624 13.828C 3.491 13.961 3.314 14.034 3.126 14.034C 2.938 14.034 2.761 13.961 2.628 13.828C 2.438 13.638 2.374 13.361 2.461 13.104L 2.572 12.775L 2.901 12.664C 2.973 12.638 3.05 12.626 3.128 12.626ZM 8.196 -3.05176e-08C 7.487 -3.05176e-08 6.875 0.410001 6.58 1.005L 2.469 1.005L -4.88281e-07 3.474L -4.88281e-07 11.337L 1.416 12.753C 1.204 13.382 1.347 14.105 1.848 14.606C 2.2 14.958 2.662 15.135 3.124 15.135C 3.586 15.135 4.048 14.959 4.4 14.606C 5.105 13.901 5.105 12.758 4.4 12.054C 4.048 11.702 3.587 11.527 3.127 11.527C 2.931 11.527 2.735 11.559 2.548 11.622L 1.601 10.675L 1.601 4.138L 3.132 2.607L 6.58 2.607C 6.875 3.202 7.487 3.612 8.196 3.612C 9.193 3.612 10.001 2.804 10.001 1.807C 10.001 0.809999 9.193 -3.05176e-08 8.196 -3.05176e-08Z" transform="translate(275.412 156.972) scale(3)" fill="#D3C9FF"/>
<path id="Vector_17" d="M 11.332 10.752C 11.52 10.752 11.696 10.825 11.828 10.957C 11.961 11.09 12.034 11.267 12.034 11.455C 12.034 11.643 11.961 11.82 11.828 11.953C 11.695 12.086 11.518 12.159 11.33 12.159C 11.142 12.159 10.965 12.086 10.832 11.953C 10.642 11.763 10.578 11.486 10.665 11.229L 10.776 10.9L 11.105 10.789C 11.177 10.764 11.254 10.752 11.332 10.752ZM 1.805 13.741L 2.116 13.895C 2.359 14.016 2.51 14.257 2.51 14.525C 2.51 14.914 2.194 15.23 1.805 15.23C 1.416 15.23 1.1 14.914 1.1 14.525C 1.1 14.257 1.251 14.015 1.494 13.895L 1.805 13.741ZM 1.005 2.80762e-06L 1.005 12.911C 0.410001 13.206 1.83105e-07 13.818 1.83105e-07 14.527C 1.83105e-07 15.524 0.808001 16.332 1.805 16.332C 2.802 16.332 3.61 15.524 3.61 14.527C 3.61 13.818 3.2 13.206 2.605 12.911L 2.605 3.863L 9.621 10.879C 9.409 11.508 9.552 12.231 10.053 12.732C 10.405 13.084 10.867 13.261 11.329 13.261C 11.791 13.261 12.253 13.085 12.605 12.732C 13.31 12.027 13.31 10.884 12.605 10.18C 12.253 9.828 11.793 9.653 11.332 9.653C 11.136 9.653 10.94 9.685 10.753 9.748L 1.005 2.80762e-06Z" transform="translate(208.2 194.394) scale(3)" fill="#D3C9FF"/>
<path id="Vector_18" d="M 7.72775 1.1C 8.11675 1.1 8.43275 1.416 8.43275 1.805C 8.43275 2.073 8.28175 2.315 8.03875 2.435L 7.72775 2.589L 7.41675 2.435C 7.17375 2.314 7.02275 2.073 7.02275 1.805C 7.02275 1.416 7.33975 1.1 7.72775 1.1ZM 1.80175 26.821C 1.87975 26.821 1.95675 26.834 2.03075 26.858L 2.35975 26.969L 2.47075 27.298C 2.55675 27.555 2.49275 27.832 2.30375 28.022C 2.17075 28.155 1.99375 28.228 1.80575 28.228C 1.61775 28.228 1.44075 28.155 1.30775 28.022C 1.17475 27.889 1.10175 27.712 1.10175 27.524C 1.10175 27.336 1.17475 27.159 1.30775 27.026C 1.43775 26.893 1.61375 26.821 1.80175 26.821ZM 7.72775 -1.25122e-06C 6.73075 -1.25122e-06 5.92275 0.807999 5.92275 1.805C 5.92275 2.514 6.33275 3.126 6.92775 3.421L 6.92775 21.269L 2.38075 25.816C 2.19275 25.753 1.99675 25.721 1.80175 25.721C 1.34075 25.721 0.87975 25.896 0.52875 26.248C -0.17625 26.953 -0.17625 28.096 0.52875 28.8C 0.88075 29.152 1.34275 29.329 1.80475 29.329C 2.26675 29.329 2.72875 29.153 3.08075 28.8C 3.58175 28.299 3.72475 27.576 3.51275 26.947L 8.52875 21.931L 8.52875 3.42C 9.12375 3.125 9.53375 2.513 9.53375 1.804C 9.53275 0.808 8.72475 -1.25122e-06 7.72775 -1.25122e-06Z" transform="translate(158.032 146.187) scale(3)" fill="#D3C9FF"/>
<path id="Vector_19" d="M 1.80475 1.1C 1.99275 1.1 2.16975 1.173 2.30275 1.306C 2.49275 1.496 2.55675 1.773 2.46975 2.03L 2.35875 2.359L 2.02975 2.47C 1.95575 2.495 1.87975 2.507 1.80075 2.507C 1.61275 2.507 1.43675 2.434 1.30475 2.302C 1.02975 2.027 1.02975 1.58 1.30475 1.305C 1.43975 1.174 1.61675 1.1 1.80475 1.1ZM 19.0558 18.35C 19.2438 18.35 19.4198 18.423 19.5518 18.555C 19.8268 18.83 19.8268 19.277 19.5518 19.552C 19.4188 19.685 19.2417 19.758 19.0537 19.758C 18.8657 19.758 18.6888 19.685 18.5558 19.552C 18.3658 19.362 18.3018 19.085 18.3888 18.828L 18.4998 18.499L 18.8288 18.388C 18.9008 18.362 18.9778 18.35 19.0558 18.35ZM 1.80475 1.70898e-06C 1.34275 1.70898e-06 0.88075 0.176001 0.52875 0.529001C -0.17625 1.234 -0.17625 2.377 0.52875 3.081C 0.88075 3.433 1.34075 3.608 1.80175 3.608C 1.99775 3.608 2.19375 3.576 2.38075 3.513L 17.3438 18.476C 17.1318 19.105 17.2747 19.828 17.7757 20.329C 18.1277 20.681 18.5898 20.858 19.0518 20.858C 19.5138 20.858 19.9758 20.682 20.3278 20.329C 21.0328 19.624 21.0328 18.481 20.3278 17.777C 19.9758 17.425 19.5158 17.25 19.0548 17.25C 18.8588 17.25 18.6627 17.282 18.4757 17.345L 3.51275 2.382C 3.72475 1.753 3.58175 1.03 3.08075 0.529001C 2.72875 0.177001 2.26675 1.70898e-06 1.80475 1.70898e-06Z" transform="translate(104.029 128.4) scale(3)" fill="#D3C9FF"/>
<path id="Vector_20" d="M 1.805 1.1C 2.073 1.1 2.315 1.251 2.435 1.494L 2.589 1.805L 2.435 2.116C 2.314 2.359 2.073 2.51 1.805 2.51C 1.416 2.51 1.1 2.194 1.1 1.805C 1.1 1.416 1.416 1.1 1.805 1.1ZM 7.2 6.415L 7.511 6.569C 7.754 6.69 7.905 6.931 7.905 7.199C 7.905 7.588 7.589 7.904 7.2 7.904C 6.811 7.904 6.495 7.588 6.495 7.199C 6.495 6.931 6.646 6.689 6.889 6.569L 7.2 6.415ZM 1.805 -1.5564e-06C 0.807999 -1.5564e-06 8.69751e-07 0.807999 8.69751e-07 1.805C 8.69751e-07 2.802 0.807999 3.61 1.805 3.61C 2.514 3.61 3.126 3.2 3.421 2.605L 6.4 2.605L 6.4 5.584C 5.805 5.879 5.395 6.491 5.395 7.2C 5.395 8.197 6.203 9.005 7.2 9.005C 8.197 9.005 9.005 8.197 9.005 7.2C 9.005 6.491 8.595 5.879 8 5.584L 8 1.005L 3.421 1.005C 3.125 0.409999 2.514 -1.5564e-06 1.805 -1.5564e-06Z" transform="translate(143.415 140.772) scale(3)" fill="#D3C9FF"/>
<path id="Vector_21" d="M 1.80475 1.1C 1.99275 1.1 2.16975 1.173 2.30275 1.306C 2.49275 1.496 2.55675 1.773 2.46975 2.03L 2.35875 2.359L 2.02975 2.47C 1.95575 2.495 1.87975 2.507 1.80075 2.507C 1.61275 2.507 1.43675 2.434 1.30475 2.302C 1.17175 2.169 1.09875 1.992 1.09875 1.804C 1.09875 1.616 1.17175 1.439 1.30475 1.306C 1.43775 1.173 1.61675 1.1 1.80475 1.1ZM 9.00275 16.55C 9.08075 16.55 9.15775 16.563 9.23175 16.587L 9.56075 16.698L 9.67175 17.027C 9.75775 17.284 9.69375 17.561 9.50475 17.751C 9.37175 17.884 9.19475 17.957 9.00675 17.957C 8.81875 17.957 8.64175 17.884 8.50875 17.751C 8.37575 17.618 8.30275 17.441 8.30275 17.253C 8.30275 17.065 8.37575 16.888 8.50875 16.755C 8.63875 16.622 8.81475 16.55 9.00275 16.55ZM 1.80475 3.23486e-06C 1.34275 3.23486e-06 0.88075 0.176003 0.52875 0.529003C -0.17625 1.234 -0.17625 2.377 0.52875 3.081C 0.88075 3.433 1.34075 3.608 1.80175 3.608C 1.99775 3.608 2.19375 3.576 2.38075 3.513L 11.9968 13.129L 9.58075 15.545C 9.39275 15.482 9.19675 15.45 9.00175 15.45C 8.54075 15.45 8.07975 15.625 7.72875 15.977C 7.02375 16.682 7.02375 17.825 7.72875 18.529C 8.08075 18.881 8.54275 19.058 9.00475 19.058C 9.46675 19.058 9.92875 18.882 10.2808 18.529C 10.7818 18.028 10.9248 17.305 10.7128 16.676L 14.2598 13.129L 3.51275 2.382C 3.72475 1.753 3.58175 1.03 3.08075 0.529003C 2.72875 0.177003 2.26675 3.23486e-06 1.80475 3.23486e-06Z" transform="translate(120.229 171.6) scale(3)" fill="#D3C9FF"/>
<path id="Vector_22" d="M 1.80475 1.1C 1.99275 1.1 2.16975 1.173 2.30275 1.306C 2.49275 1.496 2.55675 1.773 2.46975 2.03L 2.35875 2.359L 2.02975 2.47C 1.95575 2.495 1.87975 2.507 1.80075 2.507C 1.61275 2.507 1.43675 2.434 1.30475 2.302C 1.02975 2.027 1.02975 1.58 1.30475 1.305C 1.43975 1.174 1.61675 1.1 1.80475 1.1ZM 10.0557 9.35C 10.2437 9.35 10.4198 9.423 10.5518 9.555C 10.8268 9.83 10.8268 10.277 10.5518 10.552C 10.4188 10.685 10.2418 10.758 10.0538 10.758C 9.86575 10.758 9.68875 10.685 9.55575 10.552C 9.36575 10.362 9.30175 10.085 9.38875 9.828L 9.49975 9.499L 9.82875 9.388C 9.90075 9.362 9.97775 9.35 10.0557 9.35ZM 1.80475 -1.34277e-06C 1.34275 -1.34277e-06 0.880749 0.175998 0.528749 0.528998C -0.176251 1.234 -0.176251 2.377 0.528749 3.081C 0.880749 3.433 1.34075 3.608 1.80175 3.608C 1.99775 3.608 2.19375 3.576 2.38075 3.513L 8.34375 9.476C 8.13175 10.105 8.27475 10.828 8.77575 11.329C 9.12775 11.681 9.58975 11.858 10.0518 11.858C 10.5138 11.858 10.9757 11.682 11.3277 11.329C 12.0327 10.624 12.0327 9.481 11.3277 8.777C 10.9757 8.425 10.5158 8.25 10.0548 8.25C 9.85875 8.25 9.66275 8.282 9.47575 8.345L 3.51275 2.382C 3.72475 1.753 3.58175 1.03 3.08075 0.528998C 2.72875 0.176998 2.26675 -1.34277e-06 1.80475 -1.34277e-06Z" transform="translate(98.6288 177) scale(3)" fill="#D3C9FF"/>
</g>
</g>
<g id="2">
<path id="Vector_23" d="M 8.70974 12.3004C 8.70974 11.7507 8.51086 11.3228 8.11311 11.0166C 7.71535 10.7105 7.01751 10.3921 6.01957 10.0616C 5.02164 9.73459 4.2066 9.41799 3.57446 9.11183C 1.51111 8.12028 0.479435 6.75646 0.479435 5.02038C 0.479435 4.15755 0.73691 3.39563 1.25186 2.73459C 1.76681 2.07704 2.49306 1.56387 3.43062 1.19508C 4.37174 0.829771 5.42827 0.647117 6.60022 0.647117C 7.74376 0.647117 8.76833 0.845427 9.67393 1.24205C 10.5831 1.64215 11.288 2.21098 11.7888 2.94856C 12.2931 3.68961 12.5452 4.5333 12.5452 5.47962L 8.72039 5.47962C 8.72039 4.84642 8.52151 4.35413 8.12376 4.00273C 7.72601 3.65482 7.18975 3.48086 6.51499 3.48086C 5.82958 3.48086 5.28799 3.62873 4.89024 3.92445C 4.49248 4.22018 4.29361 4.59592 4.29361 5.05169C 4.29361 5.45179 4.51202 5.81536 4.94884 6.1424C 5.38565 6.46595 6.15453 6.79995 7.25545 7.14438C 8.35638 7.4923 9.2602 7.8663 9.96692 8.2664C 11.6858 9.23708 12.5452 10.5748 12.5452 12.2796C 12.5452 13.6399 12.0196 14.7097 10.9684 15.4891C 9.92075 16.2684 8.48245 16.6581 6.65349 16.6581C 5.36435 16.6581 4.19772 16.4302 3.15362 15.9744C 2.10951 15.5221 1.32289 14.9011 0.793731 14.1113C 0.264577 13.325 -3.04817e-08 12.4187 -3.04817e-08 11.3924L 3.84613 11.3924C 3.84613 12.2239 4.06632 12.838 4.50669 13.2346C 4.94706 13.6312 5.66266 13.8295 6.65349 13.8295C 7.28919 13.8295 7.78993 13.6956 8.15572 13.4277C 8.52507 13.1598 8.70974 12.784 8.70974 12.3004ZM 19.2893 4.86382L 19.2893 16.4389L 15.5976 16.4389L 15.5976 4.86382L 19.2893 4.86382ZM 15.3792 1.87351C 15.3792 1.36208 15.5674 0.941103 15.9439 0.610586C 16.3239 0.283549 16.8157 0.12003 17.4195 0.12003C 18.0232 0.12003 18.5151 0.283549 18.8951 0.610586C 19.2751 0.941103 19.4651 1.36208 19.4651 1.87351C 19.4651 2.38842 19.2751 2.80939 18.8951 3.13643C 18.5151 3.46695 18.0232 3.63221 17.4195 3.63221C 16.8157 3.63221 16.3239 3.46695 15.9439 3.13643C 15.5674 2.80939 15.3792 2.38842 15.3792 1.87351ZM 22.6506 4.86382L 26.1026 4.86382L 26.2198 6.22068C 27.0579 5.17346 28.1837 4.64985 29.5971 4.64985C 31.0887 4.64985 32.0973 5.23086 32.6229 6.39289C 33.4255 5.23086 34.5833 4.64985 36.0961 4.64985C 38.4933 4.64985 39.7239 6.06933 39.7878 8.9083L 39.7878 16.4389L 36.0961 16.4389L 36.0961 9.1327C 36.0961 8.54125 35.9949 8.10984 35.7925 7.83847C 35.5865 7.5671 35.2154 7.43141 34.6791 7.43141C 33.9476 7.43141 33.4042 7.74801 33.0491 8.38121L 33.0597 8.53255L 33.0597 16.4389L 29.3681 16.4389L 29.3681 9.15358C 29.3681 8.54821 29.2686 8.10984 29.0697 7.83847C 28.8744 7.5671 28.4998 7.43141 27.9457 7.43141C 27.239 7.43141 26.701 7.74801 26.3316 8.38121L 26.3316 16.4389L 22.6506 16.4389L 22.6506 4.86382ZM 53.9311 10.5678L 53.9311 10.7348C 53.9311 12.5335 53.5174 13.9704 52.6899 15.0455C 51.866 16.1205 50.7509 16.6581 49.3445 16.6581C 48.2578 16.6581 47.3646 16.2684 46.665 15.4891L 46.665 20.8956L 42.984 20.8956L 42.984 4.86382L 46.4253 4.86382L 46.5372 5.93365C 47.2439 5.07778 48.1726 4.64985 49.3232 4.64985C 50.7793 4.64985 51.9104 5.1752 52.7165 6.22589C 53.5263 7.28007 53.9311 8.72739 53.9311 10.5678ZM 50.2501 10.8966L 50.2501 10.5104C 50.2501 8.45775 49.6375 7.43141 48.4123 7.43141C 47.5387 7.43141 46.9562 7.73757 46.665 8.3499L 46.665 12.911C 46.9882 13.5512 47.5795 13.8713 48.4389 13.8713C 49.6109 13.8713 50.2146 12.8797 50.2501 10.8966ZM 60.5047 1.99077e-08L 60.5047 16.4389L 56.8131 16.4389L 56.8131 1.99077e-08L 60.5047 1.99077e-08ZM 69.5554 16.6581C 67.7406 16.6581 66.2721 16.1275 65.1499 15.0664C 64.0312 14.0052 63.4719 12.6257 63.4719 10.9279L 63.4719 10.6305C 63.4719 9.44409 63.6956 8.39861 64.1431 7.49404C 64.5906 6.58946 65.244 5.88842 66.1034 5.3909C 66.9629 4.89687 67.9821 4.64985 69.1612 4.64985C 70.8232 4.64985 72.1337 5.15432 73.0925 6.16327C 74.055 7.17222 74.5362 8.57952 74.5362 10.3852L 74.5362 11.7838L 67.2168 11.7838C 67.3482 12.4344 67.6359 12.9458 68.0798 13.3181C 68.5237 13.6869 69.099 13.8713 69.8058 13.8713C 70.9706 13.8713 71.8815 13.4729 72.5385 12.6762L 74.2166 14.6228C 73.7584 15.242 73.1085 15.7361 72.2668 16.1049C 71.4287 16.4737 70.5249 16.6581 69.5554 16.6581ZM 69.1399 7.43141C 68.0603 7.43141 67.4192 8.13072 67.2168 9.52932L 70.9298 9.52932L 70.9298 9.24752C 70.944 8.66998 70.7948 8.22291 70.4823 7.90631C 70.1698 7.58971 69.7223 7.43141 69.1399 7.43141ZM 94.6938 10.5678L 94.6938 10.7453C 94.6938 12.6449 94.2924 14.1044 93.4898 15.1238C 92.6908 16.1466 91.5614 16.6581 90.1018 16.6581C 88.9015 16.6581 87.9337 16.1901 87.1986 15.2542L 87.0441 16.4389L 83.7467 16.4389L 83.7467 1.99077e-08L 87.4276 1.99077e-08L 87.4276 5.79274C 88.1131 5.03081 88.9974 4.64985 90.0805 4.64985C 91.5543 4.64985 92.6908 5.1665 93.4898 6.1998C 94.2924 7.2331 94.6938 8.68911 94.6938 10.5678ZM 91.0021 10.5209C 91.0021 9.40756 90.8494 8.61431 90.544 8.14115C 90.2421 7.66799 89.7787 7.43141 89.1536 7.43141C 88.3226 7.43141 87.7473 7.74105 87.4276 8.36034L 87.4276 12.9632C 87.7402 13.5755 88.3226 13.8817 89.1749 13.8817C 90.0415 13.8817 90.5919 13.4677 90.8263 12.6397C 90.9435 12.2361 91.0021 11.5298 91.0021 10.5209ZM 101.262 1.99077e-08L 101.262 16.4389L 97.5704 16.4389L 97.5704 1.99077e-08L 101.262 1.99077e-08ZM 104.144 11.1523L 104.133 10.547C 104.133 9.38842 104.362 8.3586 104.82 7.4575C 105.279 6.55293 105.937 5.85885 106.797 5.37525C 107.656 4.89165 108.665 4.64985 109.823 4.64985C 111.595 4.64985 112.99 5.18564 114.01 6.25721C 115.029 7.33226 115.539 8.79349 115.539 10.6409L 115.539 10.7714C 115.539 12.5736 115.027 14.0052 114.004 15.0664C 112.978 16.1275 111.591 16.6581 109.844 16.6581C 108.164 16.6581 106.813 16.1623 105.79 15.1707C 104.771 14.1827 104.222 12.8432 104.144 11.1523ZM 107.825 10.1138L 107.814 10.7714C 107.814 11.8395 107.985 12.624 108.326 13.125C 108.67 13.6225 109.176 13.8713 109.844 13.8713C 111.154 13.8713 111.826 12.8832 111.858 10.9071L 111.858 10.547C 111.858 8.46993 111.179 7.43141 109.823 7.43141C 108.594 7.43141 107.928 8.32555 107.825 10.1138ZM 117.792 10.6931L 117.792 10.5678C 117.792 9.39538 117.989 8.36034 118.383 7.46272C 118.777 6.56163 119.342 5.86754 120.077 5.38047C 120.812 4.89339 121.668 4.64985 122.645 4.64985C 123.874 4.64985 124.834 5.05517 125.527 5.86581L 125.66 4.86382L 129 4.86382L 129 16.0005C 129 17.0234 128.759 17.9105 128.276 18.662C 127.793 19.4135 127.091 19.9911 126.171 20.3946C 125.255 20.7982 124.191 21 122.98 21C 122.114 21 121.276 20.84 120.466 20.5199C 119.653 20.1998 119.031 19.7823 118.602 19.2674L 120.141 17.1486C 120.827 17.9384 121.73 18.3333 122.853 18.3333C 124.483 18.3333 125.298 17.5139 125.298 15.8752L 125.298 15.5099C 124.591 16.2753 123.7 16.6581 122.624 16.6581C 121.182 16.6581 120.015 16.117 119.124 15.035C 118.236 13.953 117.792 12.5057 117.792 10.6931ZM 121.484 10.7922C 121.484 11.7386 121.666 12.4883 122.032 13.0415C 122.398 13.5947 122.908 13.8713 123.561 13.8713C 124.357 13.8713 124.935 13.6121 125.298 13.0937L 125.298 8.21943C 124.943 7.69408 124.371 7.43141 123.582 7.43141C 122.929 7.43141 122.416 7.71844 122.043 8.29249C 121.67 8.86655 121.484 9.6998 121.484 10.7922Z" transform="translate(12 144) scale(3)" fill="white"/>
</g>
</g>
</g>
</svg>
