<svg version="1.1" id="Layer_1" xmlns="http://www.w3.org/2000/svg" xmlns:xlink="http://www.w3.org/1999/xlink" x="0px" y="0px" viewBox="0 0 900 900" enable-background="new 0 0 900 900" xml:space="preserve">
<path d="M810.2-1.4L810.2-1.4c-23.9,0-46.8,9.5-63.7,26.4L449.6,321.9L152.8,25C135.9,8.1,113-1.4,89.1-1.4h0
	C39.3-1.4-1.1,38.9-1.1,88.7v0c0,23.9,9.5,46.8,26.4,63.7l296.9,296.9L25.3,746.2C8.4,763.1-1.1,786-1.1,809.9v0
	c0,49.8,40.3,90.1,90.1,90.1h0c23.9,0,46.8-9.5,63.7-26.4l296.9-296.9l296.9,296.9c16.9,16.9,39.8,26.4,63.7,26.4h0
	c49.8,0,90.1-40.3,90.1-90.1v0c0-23.9-9.5-46.8-26.4-63.7L577.1,449.3L874,152.4c16.9-16.9,26.4-39.8,26.4-63.7v0
	C900.4,38.9,860-1.4,810.2-1.4z" fill="rgb(1, 85, 147)"></path>
</svg>
